<?xml version="1.0" encoding="utf-8"?>
<!-- Uploaded to: SVG Repo, www.svgrepo.com, Generator: SVG Repo Mixer Tools -->
<svg width="24px" height="24px" viewBox="-0.45 0 291.018 291.018" xmlns="http://www.w3.org/2000/svg"><defs><style>.a{fill:#957f6e;}.b{fill:#211715;}.c{fill:#b8a99e;}.d{fill:#c4b7ae;}</style></defs><path class="a" d="M145.049,2.4C60.7,2.4,2.4,67.729,2.4,144.173c0,85.531,59.556,144.433,142.654,144.433,86.3,0,142.655-59.452,142.655-144.433C287.709,67.208,229.1,2.4,145.049,2.4Z"/><path class="b" d="M145.049,0A153.562,153.562,0,0,0,96.967,7.564,139.763,139.763,0,0,0,26.081,60.27,143.51,143.51,0,0,0,6.669,99.928,149.589,149.589,0,0,0,0,144.993a167.137,167.137,0,0,0,6.623,46.621,141.788,141.788,0,0,0,18.4,39.273,132.808,132.808,0,0,0,28.62,30.531,137.819,137.819,0,0,0,37.525,20.516,156.015,156.015,0,0,0,44.419,8.813,172.459,172.459,0,0,0,47.1-3.786,142.08,142.08,0,0,0,40.21-15.585,128.913,128.913,0,0,0,31.892-26.11,133.77,133.77,0,0,0,22.218-35.022,157.772,157.772,0,0,0,11.637-42.883,165.972,165.972,0,0,0-.388-46.758,145.637,145.637,0,0,0-13.584-42.564,140.85,140.85,0,0,0-25.458-35.7,139.1,139.1,0,0,0-35.7-26.26A145.022,145.022,0,0,0,169.2,1.837,162.007,162.007,0,0,0,145.049,0c-3.089,0-3.094,4.8,0,4.8a149.479,149.479,0,0,1,46.62,7.318,136.585,136.585,0,0,1,38.783,20.158,133.784,133.784,0,0,1,29.425,30.31A138.933,138.933,0,0,1,278.8,101.074a145.43,145.43,0,0,1,6.5,43.7,167.858,167.858,0,0,1-5.869,44.324,138.045,138.045,0,0,1-16.71,37.734,125.113,125.113,0,0,1-26.374,29.487,127.567,127.567,0,0,1-34.81,19.965,152.28,152.28,0,0,1-42.89,9.414A166.054,166.054,0,0,1,113,283.067a140.041,140.041,0,0,1-39.637-14.406,128.629,128.629,0,0,1-32.087-25,131.169,131.169,0,0,1-22.772-34.04A148.267,148.267,0,0,1,6.382,167.788a156.928,156.928,0,0,1,.066-45.634A141.737,141.737,0,0,1,19.407,80.919a137.189,137.189,0,0,1,24.51-34.732,135.018,135.018,0,0,1,34.7-25.729A140.81,140.81,0,0,1,121.672,6.545,153.459,153.459,0,0,1,145.049,4.8C148.137,4.8,148.143,0,145.049,0Z"/><path class="b" d="M231.817,49.657A126.6,126.6,0,0,0,217.37,38.39a2.414,2.414,0,0,0-3.283.861,2.456,2.456,0,0,0,.861,3.283q1.794,1.2,3.548,2.464.9.649,1.788,1.315c.554.415,1.126.853,1.481,1.131q3.429,2.682,6.658,5.607a2.4,2.4,0,0,0,3.394-3.394Z"/><path class="b" d="M236.033,60.129c3.088,0,3.093-4.8,0-4.8s-3.094,4.8,0,4.8Z"/><path class="b" d="M207.185,32.286a130.363,130.363,0,0,0-44.54-14.069A140.279,140.279,0,0,0,119.4,19.362a127.682,127.682,0,0,0-35.326,12A123.264,123.264,0,0,0,55.178,52.005,124.719,124.719,0,0,0,33.5,79.736a128.162,128.162,0,0,0-13.264,33,135.763,135.763,0,0,0-3.813,36.606,146.548,146.548,0,0,0,5.746,37.127,126.347,126.347,0,0,0,14.294,31.809,117.535,117.535,0,0,0,21.706,25.473,119,119,0,0,0,28.3,18.454A130.667,130.667,0,0,0,120.1,272.564a153.1,153.1,0,0,0,38.022,1.473,139.259,139.259,0,0,0,35.332-7.49,119.292,119.292,0,0,0,29.869-15.65,115.2,115.2,0,0,0,23.706-23.124A120.757,120.757,0,0,0,263.335,198.7a139.923,139.923,0,0,0,8.591-34.568,145.848,145.848,0,0,0-.771-42.148,126.346,126.346,0,0,0-27.5-59.973,2.417,2.417,0,0,0-3.394,0,2.453,2.453,0,0,0,0,3.394A121.083,121.083,0,0,1,261.27,102.77a128.783,128.783,0,0,1,7.012,43.656,148.2,148.2,0,0,1-4.5,35.344,123.576,123.576,0,0,1-12.261,30.571,109.509,109.509,0,0,1-45.277,43.447,123.281,123.281,0,0,1-31.575,11.047,148.236,148.236,0,0,1-36.4,2.823,135.351,135.351,0,0,1-34.637-5.934A118.8,118.8,0,0,1,73.8,249.662,112.684,112.684,0,0,1,49.751,228.33a116.333,116.333,0,0,1-17.314-27.743A130.489,130.489,0,0,1,22.8,167.126a142.016,142.016,0,0,1-.882-36.552,125.713,125.713,0,0,1,8.458-33.54A119.06,119.06,0,0,1,102.821,28.6a129.464,129.464,0,0,1,36.7-6.638,132.658,132.658,0,0,1,45.524,6.106,120.859,120.859,0,0,1,19.719,8.359c2.726,1.451,5.154-2.691,2.423-4.144Z"/><path class="c" d="M87.136,216.505c-9.144-3.949-19.109-1.684-24.63-1.078,1.593,5.221,4.522,8.857,10.47,12.151,12.172,6.742,24.859-1.524,25.894-3.5l.193-.367,1.911.362c1.177.224,3.132-8.335.117-17.647a28.658,28.658,0,0,0-7.668-11.667c-3.5,4.219-4.271,7.757-3.717,13.04a72.412,72.412,0,0,0,1.681,11.075A16.953,16.953,0,0,0,87.136,216.505Z"/><path class="c" d="M77.314,204.053c-1.726-2.114-3.475-4.351-5.179-6.686l-.128-.62c-1.277-6.113,4.563-17.133,8.456-20.6a15.038,15.038,0,0,1,5.877,11.758c.014,13.616-7.268,14.335-8.221,15.381l-1.695,1.861-4.363-5.546c-5.128-6.518-11.455-6.889-11.455-6.889a43.617,43.617,0,0,0-11.046-1.3c-.188,1.186,1.2,10.125,9.753,14.221,8.534,4.085,14.155,1.254,16.156.6l2.882-.935c-.164-.188-.322-.38-.481-.572Z"/><path class="c" d="M215.066,204.053c1.725-2.114,3.474-4.351,5.178-6.686.082-.4.129-.62.129-.62,1.277-6.113-4.563-17.133-8.457-20.6a15.038,15.038,0,0,0-5.877,11.758c-.014,13.616,7.268,14.335,8.221,15.381l1.7,1.861,4.364-5.546c5.127-6.518,11.454-6.889,11.454-6.889a43.63,43.63,0,0,1,11.047-1.3c.187,1.186-1.2,10.125-9.753,14.221-8.534,4.085-14.155,1.254-16.156.6l-2.883-.935c.164-.188.323-.38.481-.572Z"/><path class="c" d="M62.433,181.172q.234.514.48,1.027c-9.991.686-12.819-1.7-16.816-5.668a18.488,18.488,0,0,1-4.7-15.021c2.982.314,7.243,2.265,11.034,5.216a24.5,24.5,0,0,1,7.378,8.844"/><path class="d" d="M62.81,176.437c-.187,1.448-.316,3.023-.377,4.735"/><path class="c" d="M64.7,184.786c2.054-.609,6.025-4.138,8.373-11.821a15.829,15.829,0,0,0-1.013-11.455c-3.936,1.084-7.968,5.04-9.251,14.927"/><path class="c" d="M54.863,134.443a35.054,35.054,0,0,0-7.254-5.806c-4.212,8.871-4.505,14.956-2.149,22.024,1.935,5.805,17.15,13.978,12.838,6.921,6.67-.875,10.1-5.444,11.813-8.07a10.548,10.548,0,0,0,1.538-9.04,11.014,11.014,0,0,0-6.432,1.018l-4.3,2.985s-.456.316-1.169.817c-.057-.806-.153-1.638-.3-2.506A16.654,16.654,0,0,0,54.863,134.443Z"/><path class="b" d="M100.974,226.472c2.3.146,3.21-2.6,3.581-4.374a29.161,29.161,0,0,0,.32-9.279,32.483,32.483,0,0,0-3.135-11.042,33.12,33.12,0,0,0-6.62-8.716,2.419,2.419,0,0,0-3.394,0,19.756,19.756,0,0,0-3.952,7.021,20.711,20.711,0,0,0-.468,7.716,2.467,2.467,0,0,0,2.4,2.4,2.418,2.418,0,0,0,2.4-2.4,17.528,17.528,0,0,1,.211-6.121,13.782,13.782,0,0,1,2.8-5.222H91.726a26.961,26.961,0,0,1,8.184,15.239,28.754,28.754,0,0,1,.234,7.779,13.39,13.39,0,0,1-.47,2.366c-.056.185-.117.368-.185.55.111-.3.17-.164.05-.132-.03.06-.062.119-.1.176q-.153.249.213-.253c-.239.186.988-.529,1.32-.508-3.085-.195-3.073,4.606,0,4.8Z"/><path class="b" d="M65.339,187.1c3.681-1.166,6.313-4.953,7.954-8.229a24.81,24.81,0,0,0,2.773-9.038,18.961,18.961,0,0,0-1.933-9.535,2.415,2.415,0,0,0-2.71-1.1c-8.615,2.455-10.806,12.727-11.317,20.461a2.4,2.4,0,1,0,4.8,0c.273-4.133.981-8.49,3.047-11.913.2-.329.411-.648.633-.962.106-.152.173-.233.02-.038.13-.166.267-.328.406-.485a11.588,11.588,0,0,1,1.347-1.293c.228-.187-.347.231.029-.014.125-.081.247-.169.373-.249.244-.156.5-.3.753-.434.126-.064.254-.122.381-.185.4-.2-.317.113-.039.017s.557-.195.843-.277l-2.711-1.1c2.2,4.682,1.305,9.585-1,14.035a16.847,16.847,0,0,1-2.894,4.188c-.255.261-.52.507-.793.748-.049.044-.485.389-.213.182s-.185.126-.2.133c-.2.131-.408.253-.618.374-.648.371.3-.072-.214.09-2.934.929-1.681,5.565,1.276,4.629Z"/><path class="b" d="M93.142,217.187a30.049,30.049,0,0,0-16.966-5.34c-4.589-.13-9.561.718-13.67,1.18a2.435,2.435,0,0,0-2.314,3.038c2.209,7.074,7.554,12.119,14.356,14.889,6.76,2.753,14.485,1.779,20.9-1.437,1.92-.963,4.389-2.284,5.5-4.229,1.529-2.689-2.617-5.111-4.145-2.423-.168.3.437-.4-.065.073-.245.23-.49.454-.751.668-.065.052.249-.167-.127.085-.179.12-.352.246-.531.364-.475.312-.963.6-1.461.877a23.825,23.825,0,0,1-7.067,2.511A20.241,20.241,0,0,1,69.414,222.2a16.5,16.5,0,0,1-4.593-7.408l-2.315,3.038c4.331-.487,8.451-1.242,12.96-1.194a25.9,25.9,0,0,1,15.253,4.7A2.418,2.418,0,0,0,94,220.47a2.454,2.454,0,0,0-.861-3.283Z"/><path class="b" d="M79.816,204.987c.168-.172-.648.33-.138.121.158-.064.313-.164.467-.241.429-.216.864-.419,1.282-.657a12.368,12.368,0,0,0,3.542-2.983,16.1,16.1,0,0,0,3.045-6.425,24.5,24.5,0,0,0,.334-10.418,17.219,17.219,0,0,0-6.188-9.93,2.481,2.481,0,0,0-3.394,0c-2.952,2.684-5.09,6.5-6.684,10.107-1.757,3.981-3.23,8.434-2.39,12.824a2.424,2.424,0,0,0,2.953,1.676,2.451,2.451,0,0,0,1.676-2.952,10.8,10.8,0,0,1-.067-2.04,12.8,12.8,0,0,1,.355-2.229,28.356,28.356,0,0,1,1.9-5.489,26.189,26.189,0,0,1,5.647-8.5H78.766a12.868,12.868,0,0,1,5.168,9.674,23.49,23.49,0,0,1-.414,5.386,14.617,14.617,0,0,1-1.166,3.6A12.25,12.25,0,0,1,81.441,198c-.3.415.247-.262-.111.136-.165.183-.325.37-.5.546s-.333.321-.5.478c-.108.1-.709.552-.138.133-.275.2-.554.394-.845.572a14.006,14.006,0,0,0-2.926,1.73c-2.161,2.21,1.23,5.607,3.394,3.394Z"/><path class="b" d="M61.244,190.4a51.567,51.567,0,0,0-11.684-1.39,2.466,2.466,0,0,0-2.4,2.4,10.526,10.526,0,0,0,.691,4.142,21.127,21.127,0,0,0,3.571,6.769A21.59,21.59,0,0,0,69.4,210.15a27.519,27.519,0,0,0,6.7-1.6c2.917-.97,1.667-5.607-1.276-4.628-.845.28-1.67.612-2.525.861a13.744,13.744,0,0,1-3.5.6A17.733,17.733,0,0,1,57.884,202a14.467,14.467,0,0,1-3.045-3.058,17.49,17.49,0,0,1-1.19-1.9q-.251-.46-.474-.935c-.072-.151-.141-.3-.209-.458.066.16.068.165.006.013a16.987,16.987,0,0,1-.918-3.03c-.04-.2-.071-.4-.107-.6.138.777.016.2.013.017a4.26,4.26,0,0,1,0-.629l-2.4,2.4a45.665,45.665,0,0,1,10.408,1.218c2.992.776,4.268-3.852,1.276-4.628Z"/><path class="b" d="M53.644,164.653c-3.555-2.733-7.738-5.009-12.245-5.543a2.389,2.389,0,0,0-2.314,1.762A20.678,20.678,0,0,0,45,178.818a20.472,20.472,0,0,0,5.718,4.225,22.291,22.291,0,0,0,9.324,1.672c3.088-.01,3.094-4.81,0-4.8a25,25,0,0,1-4.156-.267,15.79,15.79,0,0,1-1.772-.421q-.347-.1-.687-.227c-.08-.028-.668-.269-.287-.1a13.332,13.332,0,0,1-2.627-1.557c.383.286-.119-.1-.2-.162-.227-.188-.449-.381-.669-.577-.369-.329-.729-.67-1.085-1.014-3.5-3.388-5.629-8.754-4.848-13.44L41.4,163.91c-.347-.041.545.109.733.152.41.1.816.21,1.217.339a18,18,0,0,1,2.355.945,31.871,31.871,0,0,1,5.518,3.452,2.412,2.412,0,0,0,3.283-.861,2.462,2.462,0,0,0-.861-3.284Z"/><path class="b" d="M61.884,174.358a25.836,25.836,0,0,0-7.754-9.329,2.615,2.615,0,0,0-1.7-.7,2.441,2.441,0,0,0-1.7.7c-.791.862-1.056,2.568,0,3.394a29.442,29.442,0,0,1,4.227,4q.22.257.433.519c.079.1.155.195.234.292.19.236-.362-.485-.058-.071.278.377.551.758.807,1.15a18.778,18.778,0,0,1,1.36,2.471,2.411,2.411,0,0,0,1.434,1.1,2.4,2.4,0,0,0,2.711-3.526Z"/><path class="b" d="M66.429,143.562a9.771,9.771,0,0,1,2.233-.7,8.191,8.191,0,0,1,2.349-.081l-1.676-1.676a8.159,8.159,0,0,1-.237,5.254,13.44,13.44,0,0,1-1.376,2.414q-.265.393-.545.777c-.083.114-.17.225-.253.34-.1.137.278-.336-.063.072-.456.546-.923,1.079-1.43,1.578q-.409.4-.846.779c-.165.141-.332.28-.5.414.373-.293-.2.142-.228.157a12.2,12.2,0,0,1-4.887,2.15,2.4,2.4,0,1,0,1.276,4.628,18.254,18.254,0,0,0,10.235-6.593,20.266,20.266,0,0,0,3.23-5.412,13.1,13.1,0,0,0,.254-7.834,2.334,2.334,0,0,0-1.676-1.676,14.089,14.089,0,0,0-8.281,1.26,2.422,2.422,0,0,0-.861,3.283,2.451,2.451,0,0,0,3.284.861Z"/><path class="b" d="M60.305,160.95c1.026-6.56,3.1-13.595,1.138-20.194-1.847-6.213-7.29-10.9-12.623-14.191a2.415,2.415,0,0,0-3.283.861,37.831,37.831,0,0,0-3.88,13.078,26.222,26.222,0,0,0,1.565,11.007c1.177,3.158,3.922,5.518,6.567,7.459,2.353,1.726,5.219,3.525,8.2,3.742a2.421,2.421,0,0,0,2.4-2.4,2.446,2.446,0,0,0-2.4-2.4c-.314-.023.432.162-.221-.057-.2-.067-.405-.121-.6-.184a7.039,7.039,0,0,1-1.286-.566,25.9,25.9,0,0,1-3.666-2.28,21.117,21.117,0,0,1-2.879-2.565,8.71,8.71,0,0,1-1.041-1.292,3.682,3.682,0,0,1-.635-1.3,23.366,23.366,0,0,1-1.2-9.16,31.3,31.3,0,0,1,3.224-10.656l-3.283.861c4.327,2.667,9.151,6.528,10.513,11.669,1.5,5.646-.361,11.709-1.235,17.3a2.476,2.476,0,0,0,1.676,2.952,2.419,2.419,0,0,0,2.953-1.676Z"/><path class="c" d="M145.054,217.975a6.387,6.387,0,0,1-3.49-.433c-5.28-2.251-18.82-5.759-21.59-5.789-2.485-.028-3.212,2.772-3.213,3.87-.006,4.993.981,15.513,2.642,21.617a2.83,2.83,0,0,0,3.208,2.175c6.242-.345,12.9-3.116,19.712-5.584a9.737,9.737,0,0,1,5.463,0c6.808,2.468,13.293,6.824,19.535,7.168a5.375,5.375,0,0,0,4.519-2.583c1.661-6.1,1.9-17.132,1.894-21.868,0-1.1-1.115-3.663-3.6-3.635a104.261,104.261,0,0,0-15.4,2.71c-1.041.259-2.04.527-2.962.8a30.909,30.909,0,0,0-3.232,1.12A6.387,6.387,0,0,1,145.054,217.975Z"/><path class="b" d="M145.054,215.575c-2.419.291-4.92-1.184-7.2-1.921-2.545-.824-5.119-1.557-7.705-2.236-2.289-.6-4.592-1.173-6.917-1.616-2.042-.39-4.2-.844-6.077.354-2.2,1.405-2.838,4.024-2.788,6.465.057,2.762.278,5.523.564,8.269.331,3.18.75,6.361,1.358,9.5.395,2.034.671,4.5,2.257,6.008,2.517,2.4,6.782,1.26,9.777.589a86.987,86.987,0,0,0,11.018-3.512,20.813,20.813,0,0,1,4.9-1.626,10.077,10.077,0,0,1,4.979,1.1c3.4,1.421,6.663,3.132,10.086,4.494,2.945,1.172,6.829,2.6,10.017,1.716a7.065,7.065,0,0,0,5.044-4.957c1.352-5.731,1.582-11.791,1.718-17.657.06-2.538.416-5.263-1.149-7.452-1.923-2.688-4.672-2.7-7.622-2.305-3.628.483-7.234,1.149-10.806,1.949-1.959.438-3.913.916-5.833,1.5-1.893.581-3.6,1.573-5.623,1.329a2.413,2.413,0,0,0-2.4,2.4,2.459,2.459,0,0,0,2.4,2.4,9.828,9.828,0,0,0,4.828-.8,45.74,45.74,0,0,1,5.051-1.526c3.065-.78,6.169-1.413,9.285-1.955a31.335,31.335,0,0,1,5.78-.778c.686.008.9.253,1.208.859.368.712-.187-.373.1.292.236.544.011-.274.023,0,.022.5,0,1,0,1.5a119.788,119.788,0,0,1-.888,15.1c-.162,1.2-.367,2.392-.632,3.571-.065.288-.155.577-.209.867-.126.671.025-.04.108-.176-.076.124-.343.405.015,0a5.776,5.776,0,0,1-.655.663c-1.588,1.307-4.617.2-6.519-.443a98.1,98.1,0,0,1-9.014-3.906c-3.056-1.382-6.05-2.854-9.492-2.572a17.306,17.306,0,0,0-4.621,1.28c-1.788.66-3.574,1.326-5.375,1.949a49.5,49.5,0,0,1-9.76,2.571,9.407,9.407,0,0,1-2.042.154c-.422-.044-.277.015-.45-.164.093.1.3.233.032.029-.174-.132-.175-.672-.014.031-.069-.3-.172-.6-.249-.9a68.371,68.371,0,0,1-1.429-7.737c-.374-2.775-.642-5.569-.818-8.364-.063-1.008-.113-2.018-.139-3.027-.012-.473-.028-.947-.012-1.42.019-.562-.153.521.024-.12a6.6,6.6,0,0,1,.194-.662c-.16.4.189-.315.191-.319-.094.157.092-.125.118-.138.169-.086.263-.065.619-.062.138,0,.278.029.415.042-.385-.036-.324-.051.025.007.441.072.882.149,1.321.234,2.393.462,4.763,1.054,7.118,1.677,2.576.682,5.141,1.417,7.673,2.245,2.671.874,5.307,2.348,8.191,2a2.475,2.475,0,0,0,2.4-2.4A2.414,2.414,0,0,0,145.054,215.575Z"/><path class="c" d="M122.25,114.514c.22-20.567-.507-50.511-1.008-56.02-2.655-.2-14.189.082-16.937.717-1.558,5.811-9.129,11-14.715,13.185.159,3.773.371,12.232.392,13.358,3.928,0,9.323-.546,14.747-.546,0,8.576.434,25.4.434,32.216,0,9.615.629,29.732.629,45.472H122.7C122.834,154.53,122.16,122.883,122.25,114.514Z"/><path class="b" d="M124.65,114.514q.255-24.541-.654-49.1c-.085-2.307-.15-4.622-.354-6.922a2.475,2.475,0,0,0-2.4-2.4,83.077,83.077,0,0,0-8.586.052,50.836,50.836,0,0,0-8.989.75,2.4,2.4,0,0,0-1.676,1.677c-.812,2.833-3.01,5.064-5.23,6.892a29.86,29.86,0,0,1-7.809,4.617A2.483,2.483,0,0,0,87.19,72.4c.184,4.45.3,8.905.392,13.358a2.437,2.437,0,0,0,2.4,2.4c4.92-.02,9.825-.532,14.747-.546l-2.4-2.4c0,9.618.3,19.235.411,28.852q.16,14.275.426,28.548c.122,6.762.224,13.525.226,20.288a2.436,2.436,0,0,0,2.4,2.4H122.7a2.439,2.439,0,0,0,2.4-2.4c.2-13.3-.275-26.623-.414-39.922-.029-2.82-.064-5.641-.035-8.46.031-3.09-4.769-3.092-4.8,0-.134,13.3.319,26.62.437,39.924.025,2.819.055,5.639.012,8.458l2.4-2.4H105.792l2.4,2.4c0-11.738-.3-23.474-.508-35.209-.155-8.753-.193-17.507-.348-26.259-.095-5.406-.2-10.813-.207-16.22a2.434,2.434,0,0,0-2.4-2.4c-4.922.014-9.827.526-14.747.546l2.4,2.4c-.088-4.453-.208-8.908-.392-13.358l-1.762,2.315c6.64-2.646,14.307-7.587,16.392-14.862l-1.677,1.676c.211-.046.423-.079.636-.118.321-.059-.47.056-.108.012.131-.016.263-.033.395-.047.666-.072,1.334-.13,2-.178,1.7-.124,3.394-.2,5.093-.259a81.694,81.694,0,0,1,8.281-.041l-2.4-2.4c.458,5.15.485,10.36.618,15.525q.332,12.879.409,25.765c.03,4.91.032,9.82-.019,14.73C119.818,117.6,124.618,117.606,124.65,114.514Z"/><path class="c" d="M193.738,77.089a50.99,50.99,0,0,0-6.273-9.645c-4.775-5.7-10.775-9.785-17.508-9.785-12.3,0-20.939,9.664-23.892,15-5.425,9.8-8.159,22.139-8.159,35.036,0,11.243.174,17.915,1.907,27.9,1.412,8.135,5.723,17.423,9.078,20.374,4.18,3.677,10.664,7.961,19.5,7.961,8.516,0,16.471-5.367,21.043-11.663,2.779-3.828,6.48-12.869,8.352-19.433,1.118-3.923,2.464-14.452,2.464-23.985C200.251,97.8,199.288,88.059,193.738,77.089Zm-10.361,46.9a37.493,37.493,0,0,1-4.048,11.052c-2.2,3.621-6.421,7.021-10.52,7.021-4.253,0-6.458-2.62-8.47-4.735-1.615-1.7-3.831-6.858-4.369-11.564a110.982,110.982,0,0,1-.787-16.207c.215-6.449,1.185-14.673,3.8-20.309,1.421-3.068,5.577-8.784,11.5-8.784,3.934,0,8.444,5.814,10.913,11.646,2.671,6.31,2.634,12.23,3,18.425A129.58,129.58,0,0,1,183.377,123.987Z"/><path class="b" d="M185.768,69.141c12.771,15.418,13.42,36.423,11.086,55.387a68.625,68.625,0,0,1-6.69,21.626,28.5,28.5,0,0,1-6.445,8.894,25.154,25.154,0,0,1-11.061,5.986c-7.848,1.846-15.97-1.437-21.855-6.574-2.542-2.219-4.162-5.673-5.5-8.838a55.512,55.512,0,0,1-3.593-13.2,151.672,151.672,0,0,1-1.375-27.026c.239-9.515,1.976-19.236,5.979-27.923,2.777-6.028,6.684-10.971,12.593-14.36a22.123,22.123,0,0,1,11.05-3.054,17.949,17.949,0,0,1,11.01,4.3,35.442,35.442,0,0,1,4.8,4.781,2.419,2.419,0,0,0,3.394,0,2.45,2.45,0,0,0,0-3.394,31.1,31.1,0,0,0-11.631-8.942,22.125,22.125,0,0,0-13.814-.779c-7.544,1.857-14.09,7.071-18.458,13.392a48.618,48.618,0,0,0-5.5,11.576,75.959,75.959,0,0,0-3.529,15.384,117.658,117.658,0,0,0-.708,16.157c.039,4.635.173,9.271.626,13.886.938,9.58,2.821,19.386,8.121,27.611a25.275,25.275,0,0,0,8.023,7.5,30.711,30.711,0,0,0,13.053,4.628c9.84,1.1,19.379-3.941,25.347-11.606a46.716,46.716,0,0,0,5.877-11.065,68.113,68.113,0,0,0,3.958-11.78,115.6,115.6,0,0,0,1.978-29.349,63.855,63.855,0,0,0-8.627-29.982,53.76,53.76,0,0,0-4.717-6.628,2.418,2.418,0,0,0-3.394,0,2.454,2.454,0,0,0,0,3.394Z"/><path class="b" d="M168.809,139.66a7.314,7.314,0,0,1-5.087-2.292,12.709,12.709,0,0,1-3.145-4.174c-2.347-4.888-2.639-10.428-2.909-15.754a85.826,85.826,0,0,1,.575-16.056c.6-4.327,1.464-9.046,3.836-12.793,1.772-2.8,4.78-5.759,8.4-5.73a4.18,4.18,0,0,1,1.874.716,11.358,11.358,0,0,1,2.306,2.073,26.473,26.473,0,0,1,4.14,6.5c2.36,5.019,2.783,10.5,3.065,15.957a74.717,74.717,0,0,1-.3,10.319q-.13,1.543-.287,3.084c-.04.384-.081.769-.126,1.153-.015.132-.032.265-.047.4-.066.587.074-.442,0,.026a33,33,0,0,1-2.153,7.3c-1.724,4.169-5.107,9.148-10.141,9.27-3.083.074-3.095,4.875,0,4.8,5.717-.138,10.733-4.487,13.244-9.39a37.752,37.752,0,0,0,4-13.309,85.534,85.534,0,0,0,.751-10.981c-.152-6.066-.494-12.462-2.651-18.188a33.68,33.68,0,0,0-4.465-8.315,16.719,16.719,0,0,0-5.861-5.369c-4.737-2.236-10.083.45-13.378,3.993-3.352,3.605-5.048,8.158-6.075,12.909a79.747,79.747,0,0,0-1.626,18.041c.113,7.1.456,14.529,3.378,21.1,2.236,5.027,6.973,9.391,12.684,9.509C171.9,144.524,171.9,139.724,168.809,139.66Z"/><path class="b" d="M162.937,246.834c-1.717-.58-3.424-1.189-5.115-1.842-.782-.3-1.59-.585-2.348-.944.592.28.133.055-.009-.006q-.281-.121-.559-.246-.525-.233-1.043-.48a2.455,2.455,0,0,0-3.283.861,2.43,2.43,0,0,0,.861,3.284,93.162,93.162,0,0,0,10.22,4,2.418,2.418,0,0,0,2.953-1.676,2.457,2.457,0,0,0-1.677-2.952Z"/><path class="b" d="M128.294,251.462c3.272-1.108,6.442-2.476,9.647-3.759a2.622,2.622,0,0,0,1.434-1.1,2.4,2.4,0,0,0-2.71-3.526c-3.2,1.283-6.375,2.651-9.647,3.76a2.4,2.4,0,1,0,1.276,4.628Z"/><path class="b" d="M55.7,160.312c-.977,12.376,4.9,24.346,11.616,34.35A156.457,156.457,0,0,0,78.5,209.2,90.452,90.452,0,0,0,91,221.568a45.372,45.372,0,0,0,17.715,8.984c3.006.7,4.289-3.931,1.276-4.629-10.977-2.542-19.515-10.356-26.762-18.585-7.582-8.61-14.857-18.095-19.325-28.74a39.38,39.38,0,0,1-3.4-18.286,2.42,2.42,0,0,0-2.4-2.4,2.449,2.449,0,0,0-2.4,2.4Z"/><path class="c" d="M205.073,216.505c9.144-3.949,19.109-1.684,24.63-1.078-1.592,5.221-4.522,8.857-10.47,12.151-12.172,6.742-24.859-1.524-25.894-3.5l-.192-.367-1.912.362c-1.177.224-3.132-8.335-.117-17.647a28.658,28.658,0,0,1,7.668-11.667c3.5,4.219,4.271,7.757,3.718,13.04a72.334,72.334,0,0,1-1.682,11.075A16.953,16.953,0,0,1,205.073,216.505Z"/><path class="c" d="M229.776,181.172q-.234.514-.48,1.027c9.991.686,12.819-1.7,16.816-5.668a18.488,18.488,0,0,0,4.7-15.021c-2.982.314-7.243,2.265-11.034,5.216a24.5,24.5,0,0,0-7.378,8.844"/><path class="c" d="M227.508,184.786c-2.054-.609-6.025-4.138-8.373-11.821a15.824,15.824,0,0,1,1.014-11.455c3.935,1.084,7.967,5.04,9.25,14.927"/><path class="c" d="M237.346,134.443a35.054,35.054,0,0,1,7.254-5.806c4.212,8.871,4.5,14.956,2.149,22.024-1.935,5.805-17.15,13.978-12.838,6.921-6.67-.875-10.1-5.444-11.813-8.07a10.548,10.548,0,0,1-1.538-9.04,11.014,11.014,0,0,1,6.432,1.018l4.3,2.985s.456.316,1.169.817c.057-.806.153-1.638.3-2.506A16.661,16.661,0,0,1,237.346,134.443Z"/><path class="b" d="M191.235,221.672a1.406,1.406,0,0,1,.951.327q.646.454.369.181c.1.069.4.488.148.138-.083-.116-.183-.484.017.071-.054-.15-.112-.3-.155-.453a16.727,16.727,0,0,1-.483-2.305,28.148,28.148,0,0,1,.218-7.937,26.922,26.922,0,0,1,8.184-15.239h-3.4a13.791,13.791,0,0,1,2.8,5.222,17.552,17.552,0,0,1,.211,6.121,2.416,2.416,0,0,0,2.4,2.4,2.454,2.454,0,0,0,2.4-2.4,20.732,20.732,0,0,0-.469-7.716,19.769,19.769,0,0,0-3.951-7.021,2.426,2.426,0,0,0-3.4,0,33.33,33.33,0,0,0-6.525,8.532,32.2,32.2,0,0,0-3.229,11.226,29.624,29.624,0,0,0,.293,9.154c.361,1.8,1.263,4.648,3.607,4.5a2.455,2.455,0,0,0,2.4-2.4,2.421,2.421,0,0,0-2.4-2.4Z"/><path class="b" d="M228.146,182.471c-.535-.169.387.272-.148-.056-.227-.138-.458-.267-.684-.408-.506-.316.061.1-.333-.249-.268-.241-.535-.477-.789-.732a16.683,16.683,0,0,1-2.975-4.27c-2.3-4.45-3.2-9.352-1-14.035l-2.71,1.1c.259.074.51.165.765.248.515.168-.326-.158-.038-.022.127.06.255.117.381.18q.387.2.755.425c.151.095.833.591.4.252a10.933,10.933,0,0,1,1.42,1.352,7.656,7.656,0,0,1,1.059,1.485c2.065,3.422,2.774,7.781,3.047,11.913a2.457,2.457,0,0,0,2.4,2.4,2.421,2.421,0,0,0,2.4-2.4c-.511-7.734-2.7-18.006-11.316-20.461a2.425,2.425,0,0,0-2.711,1.1,18.972,18.972,0,0,0-1.933,9.535,24.855,24.855,0,0,0,2.773,9.038c1.637,3.277,4.275,7.064,7.954,8.229,2.952.934,4.215-3.7,1.276-4.629Z"/><path class="b" d="M201.49,221.331a25.9,25.9,0,0,1,15.253-4.7c4.513-.048,8.622.706,12.96,1.194l-2.315-3.038a18.833,18.833,0,0,1-11.4,11.7,20.84,20.84,0,0,1-16.8-1.114,22.911,22.911,0,0,1-2.993-1.8c-.228-.161.085.071.106.088-.091-.072-.185-.143-.272-.22-.134-.12-.273-.234-.4-.36a3.4,3.4,0,0,0-.312-.322c-.259-.189.324.5.1.106-1.527-2.685-5.675-.269-4.144,2.423.945,1.662,2.928,2.826,4.541,3.726a27.915,27.915,0,0,0,8.678,3.121,25.338,25.338,0,0,0,21.7-6.544,21.354,21.354,0,0,0,5.828-9.526,2.435,2.435,0,0,0-2.314-3.038c-1.882-.211-3.918-.539-6.133-.793a53.188,53.188,0,0,0-7.537-.387,30.049,30.049,0,0,0-16.966,5.34,2.47,2.47,0,0,0-.861,3.283,2.418,2.418,0,0,0,3.284.861Z"/><path class="b" d="M215.787,201.593a14.006,14.006,0,0,0-2.926-1.73c-.291-.178-.57-.37-.844-.572.57.419-.03-.033-.139-.133-.169-.157-.34-.313-.5-.478s-.334-.361-.5-.546c-.417-.475.27.4-.111-.136a12.25,12.25,0,0,1-.913-1.494,14.631,14.631,0,0,1-1.166-3.6,23.49,23.49,0,0,1-.414-5.386,12.87,12.87,0,0,1,5.168-9.674h-3.394a26.157,26.157,0,0,1,5.647,8.5,28.443,28.443,0,0,1,1.867,5.333,12.629,12.629,0,0,1,.325,4.425,2.465,2.465,0,0,0,1.677,2.952,2.423,2.423,0,0,0,2.952-1.676c.84-4.39-.633-8.843-2.39-12.824-1.594-3.611-3.731-7.423-6.684-10.107a2.487,2.487,0,0,0-3.394,0,17.345,17.345,0,0,0-5.849,8.612,22.821,22.821,0,0,0-.261,10.471c.718,4.195,2.753,8.146,6.44,10.435.488.3,1,.557,1.515.812.181.089.36.186.542.272.065.03.166.131.236.138.181.018-.5-.431-.279-.207,2.163,2.212,5.556-1.183,3.394-3.394Z"/><path class="b" d="M232.241,195.03a45.672,45.672,0,0,1,10.408-1.218l-2.4-2.4a4.26,4.26,0,0,1,0,.629c0,.186-.125.76.013-.017-.036.2-.067.4-.107.6a17.013,17.013,0,0,1-.874,2.919q-.159.393-.038.1c-.068.154-.137.307-.209.458q-.224.474-.474.935a17.49,17.49,0,0,1-1.19,1.9A14.467,14.467,0,0,1,234.325,202a17.744,17.744,0,0,1-10.762,3.39,22.2,22.2,0,0,1-6.185-1.465c-2.938-.977-4.2,3.657-1.276,4.628a29.3,29.3,0,0,0,5.206,1.424,21.45,21.45,0,0,0,22.767-13.588,11.586,11.586,0,0,0,.974-4.976,2.454,2.454,0,0,0-2.4-2.4,51.56,51.56,0,0,0-11.684,1.39c-2.988.775-1.721,5.406,1.276,4.628Z"/><path class="b" d="M240.987,168.8a31.871,31.871,0,0,1,5.518-3.452,17.8,17.8,0,0,1,2.215-.9c.4-.133.813-.254,1.227-.354.214-.052.43-.095.645-.14.073-.015.621-.091.218-.043l-2.314-1.762c.779,4.684-1.346,10.053-4.849,13.44-.356.344-.716.685-1.085,1.014q-.288.258-.585.506c-.073.062-.668.524-.28.233a13.728,13.728,0,0,1-2.525,1.51c-.153.069-.136.063.049-.017-.145.058-.291.114-.438.166-.226.082-.456.158-.687.227a15.79,15.79,0,0,1-1.772.421,24.636,24.636,0,0,1-4.156.267c-3.089-.01-3.093,4.79,0,4.8a22.291,22.291,0,0,0,9.324-1.672,20.457,20.457,0,0,0,5.718-4.225,20.676,20.676,0,0,0,5.914-17.946,2.391,2.391,0,0,0-2.314-1.762c-4.507.534-8.69,2.81-12.245,5.543a2.481,2.481,0,0,0-.861,3.284,2.414,2.414,0,0,0,3.283.861Z"/><path class="b" d="M234.47,176.781a18.7,18.7,0,0,1,1.32-2.409c.268-.414.554-.815.847-1.212.187-.255-.032.046-.1.13.081-.094.155-.2.233-.293q.236-.293.48-.577a29.442,29.442,0,0,1,4.227-4,2.4,2.4,0,0,0,.7-1.7,2.443,2.443,0,0,0-.7-1.7,2.412,2.412,0,0,0-1.7-.7,2.8,2.8,0,0,0-1.7.7,25.836,25.836,0,0,0-7.754,9.329,2.609,2.609,0,0,0-.242,1.85,2.4,2.4,0,0,0,4.387.573Z"/><path class="b" d="M228.2,139.418a14.089,14.089,0,0,0-8.281-1.26,2.334,2.334,0,0,0-1.676,1.676,13.05,13.05,0,0,0,.254,7.834,20.456,20.456,0,0,0,3.23,5.412,18.254,18.254,0,0,0,10.235,6.593A2.452,2.452,0,0,0,234.917,158a2.426,2.426,0,0,0-1.676-2.952,12.213,12.213,0,0,1-4.887-2.15c-.043-.03-.516-.379-.3-.21.186.141-.294-.243-.351-.292q-.441-.374-.856-.777a20.956,20.956,0,0,1-1.5-1.649c-.183-.22-.2-.246-.01,0q-.154-.2-.306-.409c-.172-.235-.339-.474-.5-.714a13.863,13.863,0,0,1-1.419-2.477,8.141,8.141,0,0,1-.237-5.254l-1.676,1.676a8.408,8.408,0,0,1,2.349.081,10.212,10.212,0,0,1,2.233.7,2.463,2.463,0,0,0,3.284-.861,2.421,2.421,0,0,0-.861-3.283Z"/><path class="b" d="M236.533,159.674c-.876-5.6-2.718-11.64-1.235-17.3,1.348-5.139,6.195-9.007,10.514-11.669l-3.284-.861a31.349,31.349,0,0,1,3.224,10.656,23.345,23.345,0,0,1-1.2,9.16,7.252,7.252,0,0,1-1.574,2.485A20.853,20.853,0,0,1,240,154.825a25.9,25.9,0,0,1-3.666,2.28,7.42,7.42,0,0,1-1.286.566c-.2.064-.405.12-.6.184-.662.21.1.034-.221.057a2.459,2.459,0,0,0-2.4,2.4,2.419,2.419,0,0,0,2.4,2.4c2.982-.217,5.849-2.016,8.2-3.742,2.646-1.941,5.39-4.3,6.567-7.459a26.22,26.22,0,0,0,1.565-11.007,37.851,37.851,0,0,0-3.879-13.078,2.421,2.421,0,0,0-3.284-.861c-5.321,3.278-10.8,7.98-12.622,14.191-1.945,6.613.109,13.622,1.137,20.194a2.417,2.417,0,0,0,2.953,1.676,2.458,2.458,0,0,0,1.676-2.952Z"/><path class="b" d="M231.707,160.312c.915,11.587-4.683,22.575-10.961,31.927a145.755,145.755,0,0,1-10.434,13.569A91.981,91.981,0,0,1,198.289,217.8a40.344,40.344,0,0,1-16.067,8.123c-3.008.7-1.735,5.326,1.276,4.629,11.753-2.722,21.107-10.993,28.881-19.82,8.105-9.205,15.736-19.276,20.478-30.664,2.59-6.222,4.185-12.986,3.65-19.756a2.461,2.461,0,0,0-2.4-2.4,2.419,2.419,0,0,0-2.4,2.4Z"/></svg>